<?xml version="1.0" encoding="UTF-8" standalone="no"?>
<svg
   class="svg-icon"
   style="overflow:hidden;fill:currentColor"
   viewBox="0 0 820.47247 861.20001"
   version="1.1"
   id="svg8"
   sodipodi:docname="finishedIcon.svg"
   width="820.47247"
   height="861.20001"
   inkscape:version="1.1.1 (3bf5ae0d25, 2021-09-20)"
   xmlns:inkscape="http://www.inkscape.org/namespaces/inkscape"
   xmlns:sodipodi="http://sodipodi.sourceforge.net/DTD/sodipodi-0.dtd"
   xmlns="http://www.w3.org/2000/svg"
   xmlns:svg="http://www.w3.org/2000/svg">
  <defs
     id="defs12" />
  <sodipodi:namedview
     id="namedview10"
     pagecolor="#ffffff"
     bordercolor="#666666"
     borderopacity="1.0"
     inkscape:pageshadow="2"
     inkscape:pageopacity="0.0"
     inkscape:pagecheckerboard="0"
     showgrid="false"
     fit-margin-top="0"
     fit-margin-left="0"
     fit-margin-right="0"
     fit-margin-bottom="0"
     inkscape:zoom="0.25390625"
     inkscape:cx="139.81538"
     inkscape:cy="443.07692"
     inkscape:window-width="1366"
     inkscape:window-height="705"
     inkscape:window-x="-8"
     inkscape:window-y="-8"
     inkscape:window-maximized="1"
     inkscape:current-layer="svg8" />
  <path
     d="M 437.4,810.9 H 73.5 C 59.4,810.9 48,800.3 48,787.2 V 71.7 C 48,58.6 59.5,48 73.5,48 h 639.8 c 14.1,0 25.5,10.6 25.5,23.7 v 381.8 c 0,13.3 10.7,24 24,24 13.3,0 24,-10.7 24,-24 V 71.7 C 786.8,32.2 753.8,0 713.3,0 H 73.5 C 33,0 0,32.2 0,71.7 v 715.5 c 0,39.5 33,71.7 73.5,71.7 h 363.9 c 13.3,0 24,-10.7 24,-24 0,-13.3 -10.8,-24 -24,-24 z"
     id="path2" />
  <path
     d="M 642.9,134 H 142 c -13.3,0 -24,10.7 -24,24 0,13.3 10.7,24 24,24 h 500.9 c 13.3,0 24,-10.7 24,-24 0,-13.3 -10.8,-24 -24,-24 z m 24,194 c 0,-13.3 -10.7,-24 -24,-24 H 142 c -13.3,0 -24,10.7 -24,24 0,13.3 10.7,24 24,24 h 500.9 c 13.2,0 24,-10.7 24,-24 z M 561.4,498 c 0,-13.3 -10.7,-24 -24,-24 H 142 c -13.3,0 -24,10.7 -24,24 0,13.3 10.7,24 24,24 h 395.4 c 13.2,0 24,-10.7 24,-24 z M 142,645.7 c -13.3,0 -24,10.7 -24,24 0,13.3 10.7,24 24,24 h 284.4 c 13.3,0 24,-10.7 24,-24 0,-13.3 -10.7,-24 -24,-24 z M 652,524.1 Z M 820.4,687.6 C 817.7,596.3 742.8,524.1 652.1,524.1 v 36 c 34.6,0 67.3,13.3 92.1,37.4 24.9,24.1 39.2,56.5 40.2,91.2 1.1,35.4 -11.7,69.1 -36,94.8 -24.3,25.8 -57.1,40.5 -92.5,41.6 -1.3,0 -2.7,0.1 -4,0.1 -34.6,0 -67.3,-13.3 -92.2,-37.4 -24.9,-24.1 -39.2,-56.5 -40.2,-91.2 -1.1,-35.4 11.7,-69.1 36,-94.8 24.3,-25.8 57.1,-40.5 92.5,-41.6 1.3,0 2.7,-0.1 4,-0.1 v -36 c -1.7,0 -3.4,0 -5.1,0.1 -93,2.8 -166.2,80.4 -163.5,173.5 2.7,91.3 77.6,163.5 168.4,163.5 1.7,0 3.4,0 5.1,-0.1 93.1,-2.8 166.2,-80.5 163.5,-173.5 z"
     id="path4" />
  <path
     d="m 567.4,697 c -7.2,-6.8 -18.6,-6.6 -25.4,0.6 -6.8,7.2 -6.6,18.6 0.6,25.4 l 54.3,51.6 c 6.3,5.9 14.4,9 22.7,9 6.4,0 12.9,-1.9 18.5,-5.7 l 1.1,-0.8 125.7,-116.7 c 7.3,-6.8 7.7,-18.2 0.9,-25.4 -6.8,-7.3 -18.2,-7.7 -25.4,-0.9 L 619.5,746.4 Z"
     id="path6" />
</svg>
