<svg xmlns="http://www.w3.org/2000/svg" xmlns:xlink="http://www.w3.org/1999/xlink" width="193.274" height="118.075" viewBox="0 0 193.274 118.075">
  <defs>
    <linearGradient id="linear-gradient" y1="0.5" x2="1" y2="0.5" gradientUnits="objectBoundingBox">
      <stop offset="0" stop-color="#2483c5"/>
      <stop offset="1" stop-color="#45c0be"/>
    </linearGradient>
  </defs>
  <g id="Group_118" data-name="Group 118" transform="translate(-1095.726 -212)">
    <g id="Group_115" data-name="Group 115">
      <g id="Group_110" data-name="Group 110">
        <g id="Group_109" data-name="Group 109">
          <circle id="Ellipse_1" data-name="Ellipse 1" cx="5.718" cy="5.718" r="5.718" transform="translate(1277.564 226.845)" fill="#ec1c24"/>
        </g>
        <path id="Path_73" data-name="Path 73" d="M1265.922,212a9.585,9.585,0,0,0-7.354,3.471c-2.248,2.728-2.032,5.894-2.337,9.21a34.987,34.987,0,0,1-5.883,16.168,35.776,35.776,0,0,1-18.355,13.92,16.141,16.141,0,0,0-2.547.742,35.665,35.665,0,0,1-8.685,1.071q-1.395,0-2.789-.1-1.377-.1-2.744-.306-1.347-.2-2.676-.5t-2.6-.695q-1.275-.393-2.518-.88t-2.425-1.059q-1.187-.571-2.326-1.232t-2.217-1.4q-1.08-.74-2.1-1.56t-1.977-1.714c-.356-.334-.684-.7-1.051-1.019a5.919,5.919,0,0,0-1.177-.783,7.39,7.39,0,0,0-2.711-.806c-.235-.022-.472-.033-.708-.033a7.428,7.428,0,0,0-.28,14.851,34.065,34.065,0,0,1,30.071,18.046q.268.582.581,1.138c.08.165.163.327.241.493l.035-.013a16.176,16.176,0,0,0,29.662-11.706,34.864,34.864,0,0,1,18.706-37.02,9.542,9.542,0,0,0-3.833-18.28Zm-30.814,64.436a5.718,5.718,0,1,1,5.718-5.718A5.719,5.719,0,0,1,1235.108,276.436Z" fill="url(#linear-gradient)"/>
      </g>
      <g id="Group_114" data-name="Group 114">
        <g id="Group_113" data-name="Group 113">
          <g id="Group_112" data-name="Group 112">
            <g id="Group_111" data-name="Group 111">
              <path id="Path_74" data-name="Path 74" d="M1157.8,284.349a2.813,2.813,0,0,0-3.9.773l-14.048,20.987a.335.335,0,0,1-.61-.144l-2.539-19.64c-.007-.052-.025-.1-.035-.149s-.016-.071-.025-.107a2.841,2.841,0,0,0-.126-.423c-.01-.026-.024-.05-.034-.075a2.911,2.911,0,0,0-.213-.406c-.018-.026-.038-.05-.055-.076a2.92,2.92,0,0,0-.281-.348c-.028-.029-.059-.054-.088-.082a2.882,2.882,0,0,0-.333-.275c-.015-.01-.027-.024-.042-.034s-.058-.029-.086-.046a2.607,2.607,0,0,0-.349-.186c-.059-.026-.119-.048-.18-.069a2.732,2.732,0,0,0-.324-.1c-.078-.017-.156-.03-.236-.041-.1-.013-.191-.023-.287-.027a2.789,2.789,0,0,0-.3.009c-.051,0-.1,0-.153.005-.028,0-.054.014-.082.019a2.676,2.676,0,0,0-.335.078c-.065.018-.131.035-.2.058a2.755,2.755,0,0,0-.331.152c-.051.026-.1.05-.152.08a2.8,2.8,0,0,0-.318.229c-.037.031-.076.058-.112.091a2.668,2.668,0,0,0-.272.291c-.032.038-.064.074-.094.113s-.065.071-.093.112l-15,22.4a2.812,2.812,0,1,0,4.672,3.129l10.843-16.187,1.58,12.227a5.958,5.958,0,0,0,10.86,2.55l14.048-20.986A2.812,2.812,0,0,0,1157.8,284.349Z" fill="#1a85c4"/>
              <path id="Path_75" data-name="Path 75" d="M1189.169,292.337a3.7,3.7,0,0,1,1.37-2.005,3.538,3.538,0,0,1,2.22-.835h12.062a2.812,2.812,0,1,0,0-5.623h-12.062a9.069,9.069,0,0,0-5.682,2.027,9.25,9.25,0,0,0-3.334,4.961,7.785,7.785,0,0,0,.044,4.622,7.387,7.387,0,0,0,2.9,3.888,7.706,7.706,0,0,0,4.426,1.323h6.009a2,2,0,0,1,1.7.789,2.177,2.177,0,0,1,.3,1.936l0,.014a3.981,3.981,0,0,1-.8,1.437A4.073,4.073,0,0,1,1197,305.9a3.462,3.462,0,0,1-1.522.368h-16.352l-2.223-17.2a5.959,5.959,0,0,0-10.861-2.551L1151.991,307.5a2.812,2.812,0,1,0,4.673,3.129l14.049-20.987a.334.334,0,0,1,.61.143l2.538,19.64a2.926,2.926,0,0,0,2.832,2.464h18.782a9.045,9.045,0,0,0,3.983-.934,9.783,9.783,0,0,0,5.055-5.946l.027-.1c.007-.023.013-.047.019-.07a7.79,7.79,0,0,0-1.224-6.718,7.65,7.65,0,0,0-6.213-3.055h-6.009a2.164,2.164,0,0,1-1.266-.351,1.8,1.8,0,0,1-.71-.966,2.258,2.258,0,0,1,.015-1.355C1189.158,292.38,1189.164,292.358,1189.169,292.337Z" fill="#1a85c4"/>
              <path id="Path_76" data-name="Path 76" d="M1122.424,284.349a2.813,2.813,0,0,0-3.9.773l-14.048,20.987a.333.333,0,0,1-.278.148.337.337,0,0,1-.333-.292l-2.538-19.64a2.812,2.812,0,0,0-5.577.721l2.539,19.641a5.958,5.958,0,0,0,10.86,2.549L1123.2,288.25A2.812,2.812,0,0,0,1122.424,284.349Z" fill="#1a85c4"/>
            </g>
          </g>
        </g>
      </g>
    </g>
    <g id="Group_117" data-name="Group 117">
      <g id="Group_116" data-name="Group 116">
        <path id="Path_77" data-name="Path 77" d="M1097,327.032v-.017a2.993,2.993,0,0,1,3.05-3.059,3.1,3.1,0,0,1,2.316.921l-.668.769a2.353,2.353,0,0,0-1.656-.735,1.99,1.99,0,0,0-1.952,2.088v.016a2,2,0,0,0,1.952,2.1,2.335,2.335,0,0,0,1.7-.77l.667.677a3.015,3.015,0,0,1-2.4,1.048A2.975,2.975,0,0,1,1097,327.032Z" fill="#504d50"/>
        <path id="Path_78" data-name="Path 78" d="M1103.925,324.057h2.637a2.333,2.333,0,0,1,1.708.592,1.753,1.753,0,0,1,.49,1.276v.017a1.769,1.769,0,0,1-1.412,1.792l1.6,2.239h-1.225l-1.454-2.062h-1.3v2.062h-1.04Zm2.561,2.933c.744,0,1.217-.381,1.217-.989v-.017c0-.642-.448-.98-1.225-.98h-1.513v1.986Z" fill="#504d50"/>
        <path id="Path_79" data-name="Path 79" d="M1110.46,324.057h4.386v.93H1111.5v1.538h2.967v.93H1111.5v1.589h3.389v.929h-4.428Z" fill="#504d50"/>
        <path id="Path_80" data-name="Path 80" d="M1118.642,324.015h.964l2.6,5.958h-1.1l-.6-1.428h-2.8l-.609,1.428h-1.065Zm1.488,3.609-1.023-2.366-1.014,2.366Z" fill="#504d50"/>
        <path id="Path_81" data-name="Path 81" d="M1125.1,325.021h-1.877v-.964h4.8v.964h-1.876v4.952H1125.1Z" fill="#504d50"/>
        <path id="Path_82" data-name="Path 82" d="M1129.547,324.057h4.387v.93h-3.347v1.538h2.966v.93h-2.966v1.589h3.389v.929h-4.429Z" fill="#504d50"/>
        <path id="Path_83" data-name="Path 83" d="M1139.623,325.021h-1.876v-.964h4.8v.964h-1.876v4.952h-1.048Z" fill="#504d50"/>
        <path id="Path_84" data-name="Path 84" d="M1144.07,324.057h4.386v.93h-3.347v1.538h2.967v.93h-2.967v1.589h3.389v.929h-4.428Z" fill="#504d50"/>
        <path id="Path_85" data-name="Path 85" d="M1149.894,327.032v-.017a2.993,2.993,0,0,1,3.051-3.059,3.1,3.1,0,0,1,2.316.921l-.668.769a2.353,2.353,0,0,0-1.656-.735,1.99,1.99,0,0,0-1.952,2.088v.016a2,2,0,0,0,1.952,2.1,2.329,2.329,0,0,0,1.7-.77l.668.677a3.015,3.015,0,0,1-2.4,1.048A2.976,2.976,0,0,1,1149.894,327.032Z" fill="#504d50"/>
        <path id="Path_86" data-name="Path 86" d="M1156.817,324.057h1.04v2.46h2.823v-2.46h1.039v5.916h-1.039V327.48h-2.823v2.493h-1.04Z" fill="#504d50"/>
        <path id="Path_87" data-name="Path 87" d="M1163.664,324.057h.964l3.169,4.091v-4.091h1.023v5.916h-.871l-3.262-4.209v4.209h-1.023Z" fill="#504d50"/>
        <path id="Path_88" data-name="Path 88" d="M1170.5,327.032v-.017a3.036,3.036,0,0,1,3.1-3.059,3,3,0,0,1,3.084,3.043v.016a3.036,3.036,0,0,1-3.1,3.06A3,3,0,0,1,1170.5,327.032Zm5.1,0v-.017a2.021,2.021,0,0,0-2.011-2.1,2,2,0,0,0-1.995,2.088v.016a2.022,2.022,0,0,0,2.012,2.1A2,2,0,0,0,1175.6,327.032Z" fill="#504d50"/>
        <path id="Path_89" data-name="Path 89" d="M1178.373,324.057h1.04v4.97h3.11v.946h-4.15Z" fill="#504d50"/>
        <path id="Path_90" data-name="Path 90" d="M1183.766,327.032v-.017a3.037,3.037,0,0,1,3.1-3.059,3,3,0,0,1,3.084,3.043v.016a3.036,3.036,0,0,1-3.1,3.06A3,3,0,0,1,1183.766,327.032Zm5.1,0v-.017a2.021,2.021,0,0,0-2.011-2.1,2,2,0,0,0-1.995,2.088v.016a2.022,2.022,0,0,0,2.012,2.1A2,2,0,0,0,1188.862,327.032Z" fill="#504d50"/>
        <path id="Path_91" data-name="Path 91" d="M1191.374,327.032v-.017a3.009,3.009,0,0,1,3.051-3.059,3.2,3.2,0,0,1,2.273.8l-.659.786a2.315,2.315,0,0,0-1.656-.634,2.012,2.012,0,0,0-1.919,2.088v.016a1.976,1.976,0,0,0,2.012,2.113,2.4,2.4,0,0,0,1.428-.448v-1.107h-1.513v-.9h2.519v2.485a3.8,3.8,0,0,1-2.468.921A2.936,2.936,0,0,1,1191.374,327.032Z" fill="#504d50"/>
        <path id="Path_92" data-name="Path 92" d="M1200.427,327.64l-2.349-3.583h1.225l1.656,2.62,1.674-2.62h1.191l-2.349,3.558v2.358h-1.048Z" fill="#504d50"/>
        <path id="Path_93" data-name="Path 93" d="M1207.7,324.057h4.4V325h-3.364v1.614h2.984v.947h-2.984v2.408H1207.7Z" fill="#504d50"/>
        <path id="Path_94" data-name="Path 94" d="M1213.4,327.032v-.017a3.037,3.037,0,0,1,3.1-3.059,3,3,0,0,1,3.084,3.043v.016a3.036,3.036,0,0,1-3.1,3.06A3,3,0,0,1,1213.4,327.032Zm5.1,0v-.017a2.021,2.021,0,0,0-2.011-2.1,2,2,0,0,0-1.995,2.088v.016a2.022,2.022,0,0,0,2.012,2.1A2,2,0,0,0,1218.5,327.032Z" fill="#504d50"/>
        <path id="Path_95" data-name="Path 95" d="M1221.273,324.057h2.637a2.33,2.33,0,0,1,1.707.592,1.752,1.752,0,0,1,.49,1.276v.017a1.769,1.769,0,0,1-1.411,1.792l1.6,2.239h-1.225l-1.454-2.062h-1.3v2.062h-1.04Zm2.561,2.933c.744,0,1.217-.381,1.217-.989v-.017c0-.642-.448-.98-1.226-.98h-1.512v1.986Z" fill="#504d50"/>
        <path id="Path_96" data-name="Path 96" d="M1231.8,325.021h-1.876v-.964h4.8v.964h-1.876v4.952H1231.8Z" fill="#504d50"/>
        <path id="Path_97" data-name="Path 97" d="M1236.244,324.057h1.039v2.46h2.823v-2.46h1.039v5.916h-1.039V327.48h-2.823v2.493h-1.039Z" fill="#504d50"/>
        <path id="Path_98" data-name="Path 98" d="M1243.091,324.057h4.386v.93h-3.347v1.538h2.966v.93h-2.966v1.589h3.389v.929h-4.428Z" fill="#504d50"/>
        <path id="Path_99" data-name="Path 99" d="M1251.713,324.057h4.4V325h-3.364v1.614h2.984v.947h-2.984v2.408h-1.039Z" fill="#504d50"/>
        <path id="Path_100" data-name="Path 100" d="M1257.588,327.463v-3.406h1.039v3.364c0,1.107.558,1.69,1.5,1.69.922,0,1.488-.557,1.488-1.648v-3.406h1.039v3.356a2.362,2.362,0,0,1-2.544,2.653A2.336,2.336,0,0,1,1257.588,327.463Z" fill="#504d50"/>
        <path id="Path_101" data-name="Path 101" d="M1265.956,325.021h-1.876v-.964h4.8v.964H1267v4.952h-1.048Z" fill="#504d50"/>
        <path id="Path_102" data-name="Path 102" d="M1270.31,327.463v-3.406h1.039v3.364c0,1.107.558,1.69,1.5,1.69.922,0,1.488-.557,1.488-1.648v-3.406h1.039v3.356a2.362,2.362,0,0,1-2.544,2.653A2.336,2.336,0,0,1,1270.31,327.463Z" fill="#504d50"/>
        <path id="Path_103" data-name="Path 103" d="M1277.225,324.057h2.637a2.328,2.328,0,0,1,1.706.592,1.753,1.753,0,0,1,.491,1.276v.017a1.77,1.77,0,0,1-1.412,1.792l1.6,2.239h-1.225l-1.453-2.062h-1.3v2.062h-1.039Zm2.56,2.933c.744,0,1.217-.381,1.217-.989v-.017c0-.642-.448-.98-1.225-.98h-1.513v1.986Z" fill="#504d50"/>
        <path id="Path_104" data-name="Path 104" d="M1283.759,324.057h4.386v.93H1284.8v1.538h2.966v.93H1284.8v1.589h3.388v.929h-4.428Z" fill="#504d50"/>
      </g>
    </g>
  </g>
</svg>
